<svg xmlns="http://www.w3.org/2000/svg" viewBox="0 0 64 64" role="img" aria-labelledby="title desc">
  <title id="title">Airbnb</title>
  <desc id="desc">Icône bouton Airbnb</desc>
  <circle cx="32" cy="32" r="32" fill="#ff5a5f"/>
  <path d="M32 14c-4.1 0-7.6 2.5-9 6.3L14 44.8c-1 2.8 1 5.7 4 5.7h28c3 0 5-2.9 4-5.7L41 20.3c-1.4-3.8-4.9-6.3-9-6.3Zm0 5.2c1.9 0 3.6 1.2 4.3 3l8.8 24.1H18.9l8.8-24.1c.7-1.8 2.4-3 4.3-3Zm0 10.6a6.2 6.2 0 1 0 0 12.4 6.2 6.2 0 0 0 0-12.4Zm0 4.8a1.4 1.4 0 1 1 0 2.8 1.4 1.4 0 0 1 0-2.8Z" fill="#fff"/>
</svg>
