<svg xmlns="http://www.w3.org/2000/svg" viewBox="0 0 32 32" aria-hidden="true">
  <path fill="#25D366" d="M16.03 3.2c-7.05 0-12.76 5.71-12.76 12.76 0 2.25.59 4.44 1.71 6.37L3 29l6.84-1.78a12.73 12.73 0 0 0 6.19 1.58h.01c7.05 0 12.76-5.71 12.76-12.76 0-3.41-1.33-6.61-3.74-9.02A12.67 12.67 0 0 0 16.03 3.2z"/>
  <path fill="#fff" d="M22.8 19.16c-.37-.18-2.18-1.08-2.52-1.2-.34-.12-.58-.18-.82.18-.24.37-.94 1.2-1.15 1.44-.21.24-.43.28-.8.1-.37-.18-1.54-.57-2.93-1.82-1.08-.97-1.81-2.17-2.02-2.53-.21-.37-.02-.56.16-.74.16-.16.37-.43.55-.65.18-.21.24-.37.37-.61.12-.24.06-.46-.03-.65-.09-.18-.82-1.99-1.12-2.73-.3-.71-.61-.61-.82-.62h-.7c-.24 0-.61.09-.92.43-.31.34-1.2 1.17-1.2 2.86 0 1.69 1.23 3.32 1.4 3.55.18.24 2.42 3.7 5.86 5.18.82.35 1.45.56 1.95.72.82.26 1.57.22 2.16.13.66-.1 2.18-.89 2.48-1.75.31-.86.31-1.6.21-1.75-.09-.15-.34-.24-.71-.43z"/>
</svg>
